<?xml version="1.0" encoding="iso-8859-1"?>
<svg version="1.1" id="Capa_1" xmlns="http://www.w3.org/2000/svg" xmlns:xlink="http://www.w3.org/1999/xlink" x="0px" y="0px"
	 viewBox="0 0 74.208 74.208" style="enable-background:new 0 0 74.208 74.208;" xml:space="preserve">
<path style="fill:#ffffff;" d="M10.263,28.819c-1.714-0.571-4.919-2.91-4.779-7.675c0.022-0.766,0.091-3.096,1.701-3.704
	c1.596-0.605,3.27,1.07,3.589,1.412c0.377,0.403,0.356,1.036-0.048,1.413c-0.401,0.377-1.035,0.356-1.413-0.048
	c-0.506-0.536-1.222-0.955-1.425-0.905c0.003,0-0.358,0.3-0.405,1.891c-0.13,4.437,3.273,5.671,3.417,5.721
	c0.52,0.181,0.799,0.748,0.622,1.268c-0.141,0.416-0.528,0.679-0.944,0.679C10.474,28.871,10.368,28.854,10.263,28.819z
	 M24.483,18.311c0,0.552,0.448,1,1,1h2.25v5.875c0,0.552,0.448,1,1,1s1-0.448,1-1v-6.875c0-0.552-0.448-1-1-1h-3.25
	C24.93,17.311,24.483,17.758,24.483,18.311z M22.677,18.311c0-0.552-0.448-1-1-1h-8.9c-0.552,0-1,0.448-1,1s0.448,1,1,1h8.9
	C22.23,19.311,22.677,18.863,22.677,18.311z M15.648,41.445c3.345,0,5.934-0.965,7.695-2.869c1.826-1.975,2.26-4.446,2.35-5.837
	h2.015c0.552,0,1-0.448,1-1v-3.471c0-0.552-0.448-1-1-1s-1,0.448-1,1v2.471h-2.005c-0.278,0-0.543,0.117-0.732,0.32
	c-0.189,0.204-0.285,0.478-0.265,0.755c0.002,0.02,0.082,1.3-0.376,2.795c-1.922-0.461-4.723-1.536-4.723-2.987c0-0.552-0.448-1-1-1
	s-1,0.448-1,1c0,2.893,3.751,4.28,5.862,4.832c-0.177,0.267-0.376,0.529-0.607,0.777c-1.367,1.469-3.457,2.213-6.214,2.213
	c-0.552,0-1,0.448-1,1S15.095,41.445,15.648,41.445z M9.558,43.647c-0.557-0.037-1.032,0.368-1.076,0.918
	c-0.043,0.551,0.368,1.032,0.918,1.076c0.104,0.008,10.389,0.908,10.389,8.804v18.762c0,0.552,0.448,1,1,1s1-0.448,1-1V54.445
	C21.79,46.665,13.788,43.979,9.558,43.647z M72.852,6.126L40.07,3.296c-0.266-0.022-0.532,0.062-0.735,0.236
	c-0.204,0.174-0.329,0.422-0.348,0.689l-3.216,45.188c-0.039,0.551,0.375,1.029,0.927,1.068c0.546,0.034,1.029-0.376,1.068-0.927
	l3.144-44.175l30.795,2.658l-3.542,53.871l-19.779-4.562c-0.537-0.12-1.075,0.211-1.199,0.75c-0.124,0.538,0.212,1.075,0.75,1.199
	l12.964,2.99l0.515,10.48c0.026,0.535,0.468,0.951,0.998,0.951c0.017,0,0.033,0,0.05-0.001c0.552-0.027,0.977-0.497,0.95-1.048
	l-0.487-9.914l5.935,1.369c0.074,0.017,0.149,0.025,0.225,0.025c0.213,0,0.422-0.068,0.597-0.197
	c0.235-0.175,0.382-0.444,0.401-0.737l3.683-56.022C73.8,6.645,73.395,6.172,72.852,6.126z M52.871,21.959
	c0,3.369-1.684,6.007-3.833,6.007s-3.833-2.639-3.833-6.007c0-3.368,1.684-6.007,3.833-6.007S52.871,18.591,52.871,21.959z
	 M50.871,21.959c0-2.446-1.085-4.007-1.833-4.007s-1.833,1.561-1.833,4.007c0,2.446,1.086,4.007,1.833,4.007
	S50.871,24.406,50.871,21.959z M60.062,34.544c-2.149,0-3.833-2.639-3.833-6.007s1.684-6.007,3.833-6.007s3.833,2.639,3.833,6.007
	S62.211,34.544,60.062,34.544z M60.062,32.544c0.748,0,1.833-1.561,1.833-4.007s-1.086-4.007-1.833-4.007s-1.833,1.561-1.833,4.007
	S59.314,32.544,60.062,32.544z M51.37,30.13c1.805,0,3.167,2.076,3.167,4.829s-1.361,4.829-3.167,4.829s-3.167-2.076-3.167-4.829
	S49.565,30.13,51.37,30.13z M50.203,34.959c0,1.755,0.755,2.829,1.167,2.829s1.167-1.074,1.167-2.829s-0.755-2.829-1.167-2.829
	S50.203,33.205,50.203,34.959z M39.139,53.085c-2.702-1.109-5.232-1.541-7.448-1.607l-1.093-5.826
	c-0.102-0.542-0.623-0.9-1.167-0.798c-0.542,0.102-0.9,0.625-0.798,1.167l1.032,5.503c-3.807,0.264-6.31,1.496-6.482,1.584
	c-0.491,0.25-0.686,0.851-0.436,1.343c0.25,0.491,0.849,0.688,1.343,0.439c0.038-0.019,2.384-1.161,5.95-1.366l0.502,2.677
	c-0.559,0.262-0.927,0.695-0.927,1.186c0,0.801,0.97,1.45,2.167,1.45c1.197,0,2.167-0.649,2.167-1.45
	c0-0.62-0.585-1.145-1.403-1.352l-0.472-2.514c1.905,0.096,4.041,0.485,6.305,1.414c3.365,1.381,6.901,4.737,6.994,7.963
	c0.056,1.919-1.186,3.502-3.69,4.704c-2.93,1.406-9.018,2.18-17.145,2.18c-0.552,0-1,0.448-1,1s0.448,1,1,1
	c5.957,0,13.916-0.413,18.01-2.377c4.088-1.961,4.88-4.653,4.825-6.565C47.251,58.65,43.04,54.687,39.139,53.085z M38.115,60.287
	c1.197,0,2.167-0.649,2.167-1.45c0-0.801-0.97-1.45-2.167-1.45c-1.197,0-2.167,0.649-2.167,1.45
	C35.949,59.638,36.919,60.287,38.115,60.287z M38.115,66.043c1.197,0,2.167-0.649,2.167-1.45c0-0.801-0.97-1.45-2.167-1.45
	c-1.197,0-2.167,0.649-2.167,1.45C35.949,65.394,36.919,66.043,38.115,66.043z M33.066,64.593c0-0.801-0.97-1.45-2.167-1.45
	c-1.197,0-2.167,0.649-2.167,1.45c0,0.801,0.97,1.45,2.167,1.45C32.096,66.043,33.066,65.394,33.066,64.593z M10.507,16.212
	c-5.447,0-9.263-1.933-9.957-5.044C0.076,9.044,1.157,6.763,3.595,4.744c2.253-1.866,5.453-3.331,9.009-4.124
	C14.449,0.209,16.279,0,18.043,0C23.49,0,27.306,1.933,28,5.044c0.474,2.124-0.607,4.406-3.045,6.424
	c-2.253,1.866-5.453,3.331-9.01,4.124C14.101,16.003,12.271,16.212,10.507,16.212z M10.507,14.212c1.618,0,3.301-0.193,5.002-0.572
	c3.254-0.726,6.156-2.044,8.17-3.712c1.803-1.493,2.667-3.114,2.369-4.448C25.584,3.398,22.367,2,18.043,2
	c-1.618,0-3.301,0.193-5.002,0.572C9.786,3.298,6.885,4.617,4.871,6.285c-1.803,1.493-2.667,3.114-2.369,4.448
	C2.967,12.814,6.183,14.212,10.507,14.212z M13.304,7.274c0.197,0.252,0.492,0.385,0.789,0.385c0.215,0,0.432-0.069,0.615-0.211
	c0.435-0.34,0.513-0.968,0.173-1.404l-1.846-2.367c-0.34-0.436-0.969-0.513-1.404-0.173c-0.435,0.34-0.513,0.968-0.173,1.404
	L13.304,7.274z"/>
<g>
</g>
<g>
</g>
<g>
</g>
<g>
</g>
<g>
</g>
<g>
</g>
<g>
</g>
<g>
</g>
<g>
</g>
<g>
</g>
<g>
</g>
<g>
</g>
<g>
</g>
<g>
</g>
<g>
</g>
</svg>
