<?xml version='1.0' encoding='iso-8859-1'?>
<svg version="1.1" xmlns="http://www.w3.org/2000/svg" viewBox="0 0 463 463" xmlns:xlink="http://www.w3.org/1999/xlink" enable-background="new 0 0 463 463">
  <g>
    <path style="fill:#800000" d="m455.5,412h-20.459l-44.573-51.896-31.614-158.074c-0.454-2.27-1.931-4.203-4.001-5.238l-48-23.997c-1.917-0.958-4.152-1.05-6.139-0.255l-36.337,14.535-20.718-13.812c-1.927-1.285-4.337-1.607-6.532-0.875l-72,24c-2.486,0.829-4.36,2.896-4.941,5.453l-34.071,149.908-7.029-21.198 7.894-110.517c0.244-3.417-1.858-6.566-5.108-7.649l-24-8c-2.196-0.731-4.606-0.41-6.532,0.875l-24,16c-2.087,1.391-3.34,3.732-3.34,6.24v126.231l-29.096,58.269h-27.404c-4.143,0-7.5,3.358-7.5,7.5s3.357,7.5 7.5,7.5h448c4.143,0 7.5-3.358 7.5-7.5s-3.357-7.5-7.5-7.5zm-281.622-202.717l64.514-21.505 18.134,12.089 2.816,20.649c0.513,3.761 3.729,6.488 7.422,6.488 0.338,0 0.68-0.023 1.023-0.07 4.104-0.56 6.978-4.34 6.418-8.444l-2.481-18.198 31.436-12.574 41.707,20.851 31.28,156.403c0.253,1.263 0.826,2.439 1.665,3.416l37.456,43.612h-57.695l-10.326-57.814c-0.729-4.078-4.631-6.795-8.701-6.064-4.078,0.729-6.793,4.625-6.064,8.702l9.855,55.176h-34.432l-21.026-42.499-8.262-118.523c-0.288-4.132-3.861-7.247-8.003-6.96-4.132,0.288-7.248,3.871-6.96,8.003l8.364,120c0.067,0.976 0.325,1.928 0.759,2.804l18.392,37.175h-191.244l32.351-26.717c1.278-1.055 2.171-2.504 2.538-4.121l39.064-171.879zm-95.668,149.568c0.52-1.041 0.79-2.188 0.79-3.351v-123.986l17.608-11.739 14.996,4.999-7.585,106.192c-0.07,0.979 0.053,1.963 0.361,2.895l14.318,43.181-42.328,34.958h-24.7l26.54-53.149z"/>
    <path style="fill:#800000" d="m222.624,386.949c0.298,0.035 0.593,0.052 0.886,0.052 3.75,0 6.99-2.809 7.438-6.625l16-135.997c0.484-4.114-2.458-7.841-6.572-8.325-4.11-0.483-7.841,2.458-8.324,6.572l-16,135.997c-0.485,4.114 2.458,7.842 6.572,8.326z"/>
    <path style="fill:#800000" d="m326.666,324.836c0.658,3.622 3.815,6.16 7.37,6.16 0.445,0 0.897-0.04 1.351-0.123 4.075-0.741 6.778-4.646 6.037-8.721l-2.908-15.995c-0.741-4.075-4.651-6.777-8.721-6.037-4.075,0.741-6.778,4.646-6.037,8.721l2.908,15.995z"/>
    <path style="fill:orange" d="m96,107.5c0,21.78 17.72,39.5 39.5,39.5s39.5-17.72 39.5-39.5-17.72-39.5-39.5-39.5-39.5,17.72-39.5,39.5zm64,0c0,13.509-10.99,24.5-24.5,24.5s-24.5-10.991-24.5-24.5 10.99-24.5 24.5-24.5 24.5,10.991 24.5,24.5z"/>
    <path style="fill:orange" d="m135.5,179c32.621,0 61.092-22.034 69.234-53.583 1.035-4.011-1.377-8.102-5.388-9.137-4.01-1.033-8.101,1.377-9.136,5.388-6.433,24.924-28.931,42.332-54.71,42.332-25.798,0-48.3-17.423-54.72-42.369-1.032-4.011-5.12-6.429-9.133-5.394-4.012,1.032-6.427,5.121-5.395,9.133 8.129,31.576 36.603,53.63 69.248,53.63z"/>
    <path style="fill:orange" d="M71.65,98.744c4.011,1.033,8.1-1.381,9.134-5.391C87.21,68.416,109.71,51,135.5,51c25.798,0,48.3,17.423,54.72,42.369   c0.871,3.384,3.918,5.632,7.259,5.632c0.618,0,1.247-0.077,1.874-0.239c4.012-1.032,6.427-5.121,5.395-9.133   C196.619,58.054,168.145,36,135.5,36c-32.635,0-61.107,22.045-69.241,53.61C65.226,93.621,67.639,97.71,71.65,98.744z"/>
  </g>
</svg>
