<svg xmlns="http://www.w3.org/2000/svg"><symbol id="icon__landscape" viewBox="0 0 463 463"><path d="M455.5 412h-20.459l-44.573-51.896-31.614-158.074c-.454-2.27-1.931-4.203-4.001-5.238l-48-23.997c-1.917-.958-4.152-1.05-6.139-.255l-36.337 14.535-20.718-13.812c-1.927-1.285-4.337-1.607-6.532-.875l-72 24c-2.486.829-4.36 2.896-4.941 5.453l-34.071 149.908-7.029-21.198 7.894-110.517c.244-3.417-1.858-6.566-5.108-7.649l-24-8c-2.196-.731-4.606-.41-6.532.875l-24 16c-2.087 1.391-3.34 3.732-3.34 6.24v126.231l-29.096 58.269h-27.404c-4.143 0-7.5 3.358-7.5 7.5s3.357 7.5 7.5 7.5h448c4.143 0 7.5-3.358 7.5-7.5s-3.357-7.5-7.5-7.5zm-281.622-202.717l64.514-21.505 18.134 12.089 2.816 20.649c.513 3.761 3.729 6.488 7.422 6.488.338 0 .68-.023 1.023-.07 4.104-.56 6.978-4.34 6.418-8.444l-2.481-18.198 31.436-12.574 41.707 20.851 31.28 156.403c.253 1.263.826 2.439 1.665 3.416l37.456 43.612h-57.695l-10.326-57.814c-.729-4.078-4.631-6.795-8.701-6.064-4.078.729-6.793 4.625-6.064 8.702l9.855 55.176h-34.432l-21.026-42.499-8.262-118.523c-.288-4.132-3.861-7.247-8.003-6.96-4.132.288-7.248 3.871-6.96 8.003l8.364 120c.067.976.325 1.928.759 2.804l18.392 37.175h-191.244l32.351-26.717c1.278-1.055 2.171-2.504 2.538-4.121l39.064-171.879zm-95.668 149.568c.52-1.041.79-2.188.79-3.351v-123.986l17.608-11.739 14.996 4.999-7.585 106.192c-.07.979.053 1.963.361 2.895l14.318 43.181-42.328 34.958h-24.7l26.54-53.149zM222.624 386.949c.298.035.593.052.886.052 3.75 0 6.99-2.809 7.438-6.625l16-135.997c.484-4.114-2.458-7.841-6.572-8.325-4.11-.483-7.841 2.458-8.324 6.572l-16 135.997c-.485 4.114 2.458 7.842 6.572 8.326zM326.666 324.836c.658 3.622 3.815 6.16 7.37 6.16.445 0 .897-.04 1.351-.123 4.075-.741 6.778-4.646 6.037-8.721l-2.908-15.995c-.741-4.075-4.651-6.777-8.721-6.037-4.075.741-6.778 4.646-6.037 8.721l2.908 15.995z" fill="#800000"/><path d="M96 107.5c0 21.78 17.72 39.5 39.5 39.5s39.5-17.72 39.5-39.5-17.72-39.5-39.5-39.5-39.5 17.72-39.5 39.5zm64 0c0 13.509-10.99 24.5-24.5 24.5s-24.5-10.991-24.5-24.5 10.99-24.5 24.5-24.5 24.5 10.991 24.5 24.5zM135.5 179c32.621 0 61.092-22.034 69.234-53.583 1.035-4.011-1.377-8.102-5.388-9.137-4.01-1.033-8.101 1.377-9.136 5.388-6.433 24.924-28.931 42.332-54.71 42.332-25.798 0-48.3-17.423-54.72-42.369-1.032-4.011-5.12-6.429-9.133-5.394-4.012 1.032-6.427 5.121-5.395 9.133 8.129 31.576 36.603 53.63 69.248 53.63zM71.65 98.744c4.011 1.033 8.1-1.381 9.134-5.391 6.426-24.937 28.926-42.353 54.716-42.353 25.798 0 48.3 17.423 54.72 42.369.871 3.384 3.918 5.632 7.259 5.632.618 0 1.247-.077 1.874-.239 4.012-1.032 6.427-5.121 5.395-9.133-8.129-31.575-36.603-53.629-69.248-53.629-32.635 0-61.107 22.045-69.241 53.61-1.033 4.011 1.38 8.1 5.391 9.134z" fill="#ffa500"/></symbol><symbol id="icon__portrait" viewBox="0 0 479.669 479.669"><path d="M450.583 464.669h-18.249v-65.158c0-1.8-.647-3.54-1.824-4.902l-19-22.002c-1.425-1.65-3.497-2.598-5.676-2.598h-32.726c-23.785-24.841-54.562-24.913-55.803-24.913h-37.571v-22.734c0-.396-.04-.783-.099-1.163 24.057-9.94 39.261-26.522 48.519-40.897 6.295-9.775 10.463-19.389 13.174-27.198 6.461 11.687 15.056 19.948 25.718 24.668 7.304 3.233 14.811 4.438 21.948 4.438 20.308-.001 37.606-9.759 38.576-10.316 3.158-1.814 4.597-5.643 3.356-9.066-1.242-3.424-4.723-5.475-8.309-4.837-.347.053-8.54 1.21-14.451-5.329-12.194-13.491-5.904-47.07-1.069-65.886 17.146-66.726 12.051-128.48-13.296-161.163-12.993-16.757-30.968-25.613-51.979-25.613-23.316 0-41.113 6.286-52.895 18.685-8.314 8.748-11.779 18.722-13.212 26.045-10.812-3.123-22.698-4.721-35.648-4.721-53.726 0-79.901 28.281-92.397 52.007-13.311 25.271-14.027 50.274-14.051 51.326l-.002.222v24.397000000000002c-4.816.336-10.792 1.592-15.514 5.272-4.263 3.322-6.821 8.067-7.398 13.723-.757 7.429-1.373 25.978 9.245 37.734 3.68 4.073 8.326 6.804 13.667 8.085v1.567c0 .36.026.72.078 1.076.131.907 3.387 22.474 17.82 44.884 9.258 14.375 24.462 30.956 48.519 40.897-.059.38-.099.767-.099 1.163v22.734h-37.518c-1.228-.011-30.869.051-54.46 23.474-18.509 18.377-27.894 45.539-27.894 80.732v15.367h-50.977c-4.142 0-7.5 3.357-7.5 7.5 0 4.142 3.358 7.5 7.5 7.5h421.497c4.142 0 7.5-3.358 7.5-7.5 0-4.143-3.358-7.5-7.5-7.5zm-54.248-79.66v13.113c0 4.143 3.358 7.5 7.5 7.5h13.5v59.047h-97v-79.66h76zm-117.711-2.898l-10.232 6.254c-.659.403-1.252.905-1.758 1.489l-5.323 6.147-13.293-4.335c12.667-2.654 23.136-11.336 28.277-22.895l2.329 13.34zm-74.609-11.938c5.425 11.023 15.789 19.19 28.187 21.602l-12.959 4.227-5.323-6.147c-.506-.584-1.099-1.086-1.758-1.489l-10.231-6.254 2.084-11.939zm95.932-341.31c8.849-9.199 22.938-13.863 41.875-13.863 16.435 0 29.936 6.663 40.127 19.805 22.569 29.102 26.639 85.903 10.621 148.238-9.989 38.873-8.399 65.774 4.726 79.957 1.02 1.103 2.073 2.088 3.144 2.968-8.392 1.735-18.319 2.097-27.388-1.941-13.02-5.798-22.097-19.779-27-41.536v-78.88c.004-2.136-.316-45.477-30.433-75.688-7.416-7.438-15.972-13.379-25.586-17.854.69-5.17 2.899-13.914 9.914-21.206zm-139.006 70.143c15.378-29.194 41.999-43.997 79.126-43.997 14.849 0 27.983 2.279 39.374 6.791l.268.105c17.411 6.969 30.715 19.195 39.734 36.61 6.393 12.343 9.266 24.86 10.557 33.562-26.86-13.367-34.327-37.525-34.659-38.644-.75-2.603-2.843-4.599-5.478-5.223-2.635-.621-5.401.221-7.239 2.209-42.599 46.116-111.072 47.155-133.361 46.152 1.092-8.37 3.999-22.987 11.678-37.565zm-29.86 115.63c-5.381-5.958-6.346-17.419-5.454-26.158.203-1.993.963-2.838 1.68-3.401 1.518-1.192 3.926-1.794 6.309-2.051v33.729c-.918-.572-1.764-1.266-2.535-2.119zm33.343 58.006c-11.735-18.011-15.267-35.843-15.808-38.914v-82.138c9.615.467 26.64.559 46.716-2.542 36.409-5.625 67.36-19.533 90.259-40.449 6.213 11.86 19.556 30.325 45.461 40.315v84.825c-.529 3.06-3.935 20.471-15.508 38.441-16.804 26.092-42.039 40.435-75.013 42.631h-1.394c-32.767-2.185-57.905-16.371-74.713-42.169zm73.983 57.153l.485.016h1.886l.485-.016c8.499-.551 16.299-1.832 23.473-3.668v26.296l-.01.193c0 13.729-11.168 24.898-24.896 24.898-13.727 0-24.895-11.169-24.895-24.898v-26.490000000000002c7.173 1.837 14.972 3.118 23.472 3.669zm-143.345 119.507c0-88.178 64.527-89.205 67.301-89.206h28.184l-4.271 24.463c-.53 3.034.849 6.083 3.477 7.69l13.591 8.308 7.82 9.029c1.45 1.674 3.531 2.59 5.67 2.59.776 0 1.561-.12 2.324-.369l21.119-6.887 21.119 6.887c.764.249 1.548.369 2.324.369 2.139 0 4.221-.916 5.671-2.59l7.82-9.029 13.591-8.308c2.627-1.607 4.006-4.655 3.477-7.69l-4.27-24.463h27.361c.477 0 16.059.125 32.04 9.913h-36.574c-4.142 0-7.5 3.357-7.5 7.5v87.16h-210.274v-15.367z"/><circle cx="186.597" cy="186.007" r="8.951"/><circle cx="293.072" cy="186.007" r="8.951"/><path d="M238.535 234.389h2.6c8.026 0 14.556-6.529 14.556-14.556 0-4.143-3.358-7.5-7.5-7.5-3.993 0-7.257 3.12-7.487 7.056h-1.737c-.229-3.936-3.494-7.056-7.487-7.056-4.142 0-7.5 3.357-7.5 7.5-.001 8.026 6.529 14.556 14.555 14.556z"/><path d="M347.835 426.008h39c4.142 0 7.5-3.357 7.5-7.5s-3.358-7.5-7.5-7.5h-39c-4.142 0-7.5 3.357-7.5 7.5 0 4.142 3.357 7.5 7.5 7.5zM347.835 451.01h39c4.142 0 7.5-3.357 7.5-7.5s-3.358-7.5-7.5-7.5h-39c-4.142 0-7.5 3.357-7.5 7.5s3.357 7.5 7.5 7.5z" fill="#800000"/><path d="M286.329 264.732c2.601-3.224 2.095-7.945-1.129-10.546-3.225-2.6-7.946-2.096-10.546 1.13-.08.099-9.088 9.939-32.971 9.939-24.794 0-36.889-10.282-37.493-10.811-3.061-2.752-7.774-2.521-10.553.527-2.791 3.061-2.571 7.805.489 10.595.658.6 16.468 14.689 47.557 14.689 31.225 0 43.364-13.934 44.646-15.523z" fill="#C24641"/></symbol><symbol id="icon__sea" viewBox="0 0 256.489 256.489"><path d="M6.598 182.744c.707.061 2.781.205 5.668.205 7.346 0 19.882-.998 28.751-6.553 7.031 4.406 16.298 5.946 23.541 6.376l.187.032c.707.057 2.782.201 5.673.201 7.341 0 19.882-.999 28.747-6.553 8.865 5.554 21.405 6.553 28.751 6.553 2.886 0 4.957-.141 5.668-.201l.417-.079c7.216-.438 16.354-1.998 23.317-6.356 7.033 4.41 16.311 5.945 23.555 6.375l.168.028c.714.056 2.791.2 5.675.2 7.342 0 19.877-.998 28.745-6.553 8.857 5.555 21.394 6.553 28.739 6.553 2.889 0 4.966-.14 5.68-.2 3.939-.313 6.884-3.767 6.576-7.715-.312-3.953-3.715-6.912-7.715-6.576-6.973.546-22.99-.149-27.807-5.853-.135-.158-.294-.28-.443-.43l-.396-.41-.098-.065c-.21-.173-.438-.308-.658-.448-.182-.111-.351-.252-.541-.35-.196-.107-.406-.173-.616-.257-.229-.094-.458-.201-.695-.271-.183-.057-.369-.08-.556-.117-.267-.061-.527-.121-.803-.145-.187-.019-.378-.005-.569-.005-.266-.005-.527-.014-.798.01-.201.019-.393.069-.593.107-.252.047-.509.079-.756.158-.188.057-.364.141-.547.215-.252.099-.509.187-.751.317-.163.084-.312.201-.467.299-.252.158-.495.308-.728.494l-.094.066c-.145.121-.257.266-.388.4-.153.146-.317.275-.462.439-3.024 3.574-10.879 5.302-18.389 5.814-.331-.019-.653-.046-.989-.019-1.689.131-3.915.187-6.361.122l-.578-.02c-7.631-.266-17.306-1.735-20.881-5.955-.131-.158-.289-.275-.434-.42-.141-.14-.252-.294-.401-.42l-.094-.065c-.224-.182-.457-.326-.69-.476l-.504-.322c-.21-.107-.435-.187-.653-.275-.22-.089-.435-.196-.658-.262l-.564-.121c-.262-.047-.523-.116-.799-.14-.177-.015-.359-.005-.536-.005-.275-.005-.551-.019-.831.01-.187.019-.369.064-.551.098-.271.047-.537.089-.803.168l-.527.205c-.257.103-.518.191-.761.322-.163.089-.317.201-.472.304-.247.149-.494.303-.723.489l-.089.061c-.145.122-.252.262-.378.393-.154.154-.327.28-.467.448-4.373 5.181-18.911 6.543-27.813 5.848-.441-.042-.866-.023-1.291.023-7.418-.546-15.112-2.269-18.09-5.792-.138-.163-.306-.294-.453-.443-.135-.131-.245-.28-.392-.401l-.1-.07c-.206-.163-.422-.294-.637-.438-.191-.126-.371-.257-.572-.364-.177-.089-.364-.153-.546-.229-.252-.103-.506-.224-.77-.299l-.439-.093c-.306-.065-.606-.141-.917-.168l-.437-.005c-.31-.01-.621-.019-.926.009l-.497.089c-.287.052-.574.094-.852.178l-.497.196c-.266.098-.539.195-.798.336l-.453.289c-.25.158-.497.308-.73.499l-.096.07c-.149.126-.264.275-.401.411-.145.148-.306.271-.441.429-3.038 3.589-10.954 5.312-18.496 5.825-.296-.02-.585-.047-.894-.028-2.107.168-4.539.205-7.068.112-.306-.01-.607-.02-.917-.043-7.918-.377-16.617-2.123-19.828-5.922-.138-.168-.306-.289-.46-.443l-.385-.401-.096-.065c-.217-.178-.446-.312-.674-.462-.178-.117-.346-.243-.53-.336-.201-.103-.418-.183-.628-.271-.224-.089-.448-.196-.679-.262-.184-.052-.371-.074-.562-.112-.264-.056-.527-.121-.793-.145-.187-.019-.374-.005-.56-.005-.273-.004-.539-.014-.812.01-.191.019-.378.065-.565.103-.261.047-.525.084-.784.159l-.525.205c-.261.103-.521.195-.774.331-.157.079-.297.191-.448.285-.254.158-.506.317-.742.513l-.089.065c-.14.117-.245.252-.373.383-.159.154-.324.289-.474.458-4.378 5.171-18.92 6.543-27.813 5.843-3.899-.299-7.4 2.642-7.701 6.59-.312 3.956 2.633 7.401 6.574 7.713z" fill="#2B65EC"/><path d="M5.882 50.052c8.918 2.686 25.066 9.327 30.457 15.688l.329.311c.173.177.322.369.514.532l.124.07c.592.483 1.237.847 1.916 1.108l.43.14c.702.219 1.421.373 2.142.373l.014.005h.009000000000000001l.014-.005c.721 0 1.439-.154 2.142-.373l.435-.145c.674-.262 1.323-.625 1.916-1.108l.126-.07c.185-.159.329-.341.493-.511l.352-.336c5.363-6.342 21.525-12.988 30.448-15.69 3.79-1.146 5.929-5.146 4.789-8.935-1.142-3.785-5.118-5.941-8.933-4.789-2.345.707-20.33 6.331-31.78 15.096-11.449-8.766-29.439-14.389-31.784-15.096-3.79-1.148-7.789.999-8.938 4.793-1.15 3.799.995 7.794 4.785 8.942zM92.703 79.338c-2.345.707-20.33 6.331-31.78 15.096-11.446-8.765-29.436-14.389-31.78-15.096-3.794-1.144-7.79.999-8.938 4.793-1.142 3.79 1.003 7.79 4.793 8.933 8.919 2.686 25.067 9.327 30.457 15.688l.329.31c.173.178.322.369.514.532l.124.07c.593.483 1.237.847 1.916 1.108l.429.14c.702.219 1.421.374 2.142.374l.014.004h.009000000000000001l.014-.004c.721 0 1.439-.154 2.142-.374l.434-.145c.674-.262 1.323-.625 1.916-1.108l.126-.07c.184-.159.329-.341.492-.511l.353-.336c5.362-6.343 21.524-12.989 30.448-15.691 3.79-1.146 5.93-5.146 4.789-8.935-1.153-3.775-5.13-5.931-8.943-4.778z" fill="#2B1B17"/><path d="M248.733 201.936c-6.973.541-22.99-.149-27.807-5.853-.136-.159-.299-.285-.448-.43-.136-.136-.247-.285-.396-.411l-.094-.069c-.219-.178-.448-.313-.672-.458-.177-.116-.35-.247-.527-.34-.21-.112-.425-.183-.635-.267-.224-.093-.443-.196-.672-.266-.187-.057-.378-.075-.569-.117-.262-.051-.522-.121-.789-.145-.187-.019-.373-.005-.564-.005-.266-.004-.532-.014-.803.01-.196.019-.383.07-.574.107-.262.047-.518.084-.779.158l-.522.205c-.257.104-.523.196-.775.332l-.452.294c-.252.158-.504.308-.737.499l-.099.061-.383.401c-.153.149-.316.28-.462.439-3.001 3.556-10.771 5.282-18.229 5.814-.378-.027-.761-.046-1.148-.014-1.661.126-3.85.182-6.263.126l-.831-.032c-7.607-.271-17.175-1.751-20.727-5.941-.13-.159-.294-.285-.438-.43-.14-.131-.247-.284-.401-.41l-.093-.065c-.229-.188-.467-.336-.71-.485-.163-.103-.322-.225-.494-.309-.22-.112-.453-.196-.682-.289-.205-.084-.411-.187-.621-.247-.205-.061-.41-.084-.62-.126-.248-.047-.495-.112-.742-.136-.201-.019-.401-.005-.607-.01-.252-.004-.513-.014-.765.01-.206.019-.411.07-.611.107-.248.047-.495.084-.742.154l-.564.219c-.248.099-.495.183-.729.309-.173.093-.327.21-.495.317-.237.149-.476.298-.7.48l-.098.065c-.14.121-.252.266-.378.396-.154.154-.322.28-.467.448-4.373 5.171-18.911 6.538-27.813 5.843-.422-.037-.833-.009-1.239.028-7.432-.542-15.154-2.269-18.136-5.797-.138-.168-.306-.289-.46-.438-.133-.131-.243-.28-.387-.401l-.096-.07c-.21-.173-.434-.312-.658-.452-.182-.121-.359-.252-.546-.351-.191-.098-.388-.163-.581-.247-.241-.103-.479-.21-.728-.28l-.479-.103c-.292-.061-.581-.131-.877-.158l-.446-.005c-.306-.01-.616-.019-.922.009l-.464.089c-.296.047-.592.094-.884.178l-.462.187c-.282.103-.565.205-.833.354-.147.075-.282.178-.425.271-.259.159-.516.318-.756.514l-.089.065c-.149.121-.264.275-.396.411-.149.148-.309.266-.446.429-3.029 3.575-10.9 5.302-18.419 5.82-.32-.019-.639-.052-.966-.023-2.112.168-4.553.205-7.087.112l-.889-.038c-7.922-.382-16.626-2.118-19.837-5.917-.138-.164-.301-.29-.448-.439l-.396-.41-.101-.07c-.201-.168-.422-.294-.632-.434-.191-.127-.378-.262-.579-.369-.175-.098-.367-.158-.553-.233-.25-.107-.497-.22-.761-.299l-.469-.093c-.29-.07-.586-.136-.882-.159l-.474-.005c-.296-.009-.593-.019-.889.01l-.521.094c-.277.051-.555.093-.828.177-.17.047-.338.131-.511.196-.261.103-.53.195-.784.336-.157.084-.301.191-.448.289-.25.154-.502.309-.737.504l-.089.065c-.145.117-.25.262-.378.393-.154.149-.324.28-.469.448-4.377 5.18-18.92 6.552-27.813 5.848-3.899-.322-7.399 2.642-7.701 6.59-.306 3.943 2.635 7.388 6.576 7.705.709.056 2.781.201 5.668.201 7.346 0 19.882-1.004 28.751-6.553 7.031 4.405 16.297 5.941 23.543 6.375l.184.032c.709.057 2.782.201 5.673.201 7.341 0 19.882-.999 28.747-6.553 8.865 5.554 21.405 6.553 28.751 6.553 2.887 0 4.956-.136 5.668-.201l.418-.074c7.215-.448 16.354-1.997 23.316-6.366 7.033 4.415 16.312 5.955 23.555 6.375l.168.033c.714.056 2.791.201 5.681.201 7.336 0 19.872-.999 28.739-6.553 8.858 5.554 21.394 6.553 28.74 6.553 2.889 0 4.966-.141 5.68-.201 3.938-.312 6.884-3.767 6.576-7.715-.334-3.952-3.737-6.896-7.736-6.578zM248.733 235.389c-6.973.551-22.99-.149-27.807-5.853-.136-.158-.299-.284-.448-.429-.136-.136-.247-.285-.392-.411l-.094-.065c-.22-.178-.448-.317-.677-.462-.177-.117-.346-.247-.527-.341-.21-.112-.425-.182-.635-.266-.224-.094-.443-.196-.672-.267-.191-.056-.388-.079-.579-.116-.257-.052-.513-.117-.774-.141-.201-.019-.396-.004-.598-.004-.257-.005-.509-.015-.77.009-.21.019-.421.075-.63.117-.238.042-.481.074-.715.145-.2.061-.387.149-.578.224-.248.098-.49.187-.724.309-.168.084-.322.205-.48.308-.243.149-.485.299-.714.485l-.094.065c-.149.126-.262.275-.393.411-.148.145-.316.271-.457.438-3.006 3.556-10.795 5.283-18.267 5.811-.369-.023-.737-.052-1.116-.015-1.68.131-3.887.188-6.318.122l-.687-.028c-7.626-.266-17.249-1.736-20.815-5.946-.13-.168-.294-.289-.443-.434-.135-.136-.247-.28-.396-.411l-.089-.061c-.237-.191-.485-.346-.732-.504l-.457-.289c-.243-.126-.49-.215-.733-.309-.191-.079-.378-.168-.574-.229-.224-.065-.447-.093-.676-.135-.233-.047-.458-.104-.687-.127-.215-.019-.43-.004-.644-.009-.243 0-.49-.014-.733.009-.21.02-.415.075-.625.117-.243.037-.485.079-.729.149-.196.056-.378.149-.569.224-.247.099-.494.183-.728.309l-.49.308c-.238.154-.477.304-.7.485l-.098.065-.383.396c-.154.149-.322.275-.462.443-4.373 5.181-18.911 6.544-27.814 5.849-.446-.043-.884-.023-1.316.023-7.407-.547-15.086-2.269-18.06-5.792-.138-.169-.306-.294-.459-.443l-.385-.401-.096-.065c-.212-.168-.436-.304-.655-.448-.182-.121-.359-.247-.551-.35-.185-.099-.385-.164-.577-.248-.245-.103-.483-.21-.732-.28l-.488-.103c-.292-.061-.576-.131-.873-.158l-.469-.005c-.301-.009-.598-.019-.898.014l-.506.089c-.282.047-.565.089-.838.173l-.506.196c-.266.098-.53.195-.789.336-.157.084-.306.191-.458.289-.25.159-.497.309-.726.495l-.096.065c-.154.13-.269.284-.408.42-.143.149-.301.266-.434.425-3.039 3.589-10.954 5.315-18.496 5.819-.296-.014-.588-.047-.894-.027-2.103.168-4.534.205-7.059.111-.31-.009-.616-.019-.926-.042-7.917-.378-16.617-2.123-19.828-5.923-.138-.158-.301-.284-.455-.429-.133-.141-.243-.285-.39-.411l-.103-.065c-.21-.173-.434-.308-.653-.448-.182-.121-.359-.252-.551-.35-.196-.107-.401-.173-.602-.257-.233-.098-.462-.205-.702-.271-.175-.056-.357-.079-.539-.112-.273-.056-.542-.121-.817-.149l-.532-.004c-.28-.005-.558-.02-.84.009l-.542.099c-.271.046-.544.088-.812.168-.17.046-.334.13-.502.195-.266.099-.534.196-.793.332-.151.079-.292.187-.438.284-.254.154-.511.312-.747.509l-.091.061-.375.388c-.159.154-.327.284-.469.452-4.378 5.181-18.92 6.553-27.813 5.849-3.901-.304-7.399 2.642-7.701 6.59-.306 3.943 2.635 7.388 6.576 7.705.707.056 2.781.196 5.668.196 7.346 0 19.882-.999 28.751-6.548 7.031 4.405 16.298 5.94 23.541 6.375l.187.032c.707.057 2.782.201 5.673.201 7.341 0 19.882-.999 28.747-6.553 8.865 5.554 21.405 6.553 28.751 6.553 2.886 0 4.957-.141 5.668-.201l.417-.074c7.216-.448 16.354-1.998 23.317-6.366 7.033 4.415 16.311 5.955 23.555 6.376l.168.032c.714.056 2.791.2 5.675.2 7.342 0 19.877-.998 28.745-6.552 8.857 5.554 21.394 6.552 28.739 6.552 2.889 0 4.966-.14 5.68-.2 3.939-.312 6.884-3.767 6.576-7.715-.319-3.941-3.722-6.929-7.721-6.569z" fill="#2B65EC"/><path d="M231.451 41.339l7.299-7.297c2.801-2.795 2.801-7.341 0-10.137-2.8-2.8-7.337-2.8-10.137 0l-7.3 7.297c-5.04-3.568-10.883-6.051-17.212-7.133v-10.32c0-3.962-3.211-7.168-7.169-7.168-3.957 0-7.168 3.207-7.168 7.168v10.319c-6.329 1.083-12.172 3.565-17.217 7.133l-7.295-7.297c-2.8-2.8-7.337-2.8-10.137 0-2.801 2.795-2.801 7.341 0 10.137l7.295 7.297c-3.57 5.042-6.049 10.886-7.137 17.214h-10.313c-3.958 0-7.169 3.206-7.169 7.168s3.211 7.169 7.169 7.169h10.318c1.083 6.328 3.562 12.176 7.136 17.214l-7.294 7.297c-2.801 2.795-2.801 7.341 0 10.137 1.399 1.4 3.234 2.098 5.068 2.098s3.673-.698 5.073-2.098l7.294-7.297c5.046 3.568 10.889 6.051 17.217 7.134v10.319c0 3.962 3.211 7.169 7.169 7.169s7.169-3.207 7.169-7.169v-10.319c6.328-1.083 12.172-3.566 17.212-7.134l7.299 7.297c1.4 1.4 3.234 2.098 5.069 2.098 1.839 0 3.673-.698 5.073-2.098 2.8-2.796 2.8-7.342 0-10.137l-7.3-7.297c3.57-5.043 6.054-10.886 7.141-17.214h10.3c3.958 0 7.169-3.207 7.169-7.169s-3.211-7.168-7.169-7.168h-10.318c-1.087-6.327-3.565-12.175-7.135-17.213zm-62.497 24.383c0-15.427 12.55-27.977 27.979-27.977 15.425 0 27.975 12.55 27.975 27.977s-12.55 27.977-27.975 27.977c-15.429 0-27.979-12.55-27.979-27.977z" fill="#ffa500"/></symbol><symbol  id="icon__still-life" viewBox="0 0 496.072 496.072"><path d="M206.191 280.613c.496 1.268.959 2.56 1.349 3.885.471 1.626.845 3.292 1.146 4.991h10.006c-.935-2.894-1.772-5.812-2.471-8.754-.309-1.325-.512-2.666-.78-4.007-.268-1.382-.512-2.764-.732-4.154-1.211-7.763-1.609-15.647-1.057-23.565-6.308 5.747-14.217 9.803-23.101 11.339 5.82 4.259 10.608 9.852 13.908 16.404.627 1.26 1.212 2.544 1.732 3.861zM176.002 261.844c-1.26-.447-2.561-.805-3.877-1.122l-.163 1.016c-.658 3.178-1.65 6.251-2.934 9.169-3.251 7.389-8.413 13.786-14.883 18.582h46.13c-.293-1.341-.602-2.658-1.024-3.934-.471-1.422-.992-2.812-1.618-4.154-4.301-9.177-12.072-16.192-21.631-19.557zM171.669 241.945c.471 2.04.862 4.121 1.057 6.267.106 1.13.114 2.252.138 3.365l.065.016c1.301.341 2.617.634 3.967.837 2.999.447 6.072.658 9.242.358 13.103-1.203 24.044-8.966 29.905-19.736.65-2.837 1.309-5.674 2.211-8.494.163-.504.374-.992.545-1.496.447-1.317.927-2.609 1.423-3.902l.228-.626c.114-1.162.033-2.365.033-3.544s.138-2.333.033-3.528c-.967-10.518-6.137-19.557-13.672-25.784-7.031 6.072-15.908 10.112-25.841 11.03-1.439.13-2.861.195-4.268.195-5.186 0-10.12-.992-14.778-2.561-.033 7.917-1.926 15.591-5.812 22.427 7.64 6.294 13.191 15.048 15.524 25.176zM118.102 289.303l.91.195h15.233c15.225-3.073 26.767-15.005 29.669-29.84.154-.805.406-1.569.512-2.39.065-.496.098-1 .138-1.504.089-.992.016-2.008.024-3.008 0-.415.024-.821.008-1.236-.024-.862.106-1.699.024-2.569l-.106-.561c-1.073-10.031-5.909-18.712-13.022-24.817v.008c-1.341 1.609-2.894 2.967-4.414 4.357-1.049.967-2.081 1.935-3.203 2.796-1.114.854-2.317 1.569-3.503 2.309-6.048 3.788-12.827 6.308-20.134 6.982-1.439.13-2.861.195-4.268.195-1.195 0-2.325-.236-3.495-.325.154 1 .333 1.992.431 3.008 1.276 13.94-3.837 27.003-12.9 36.343 4.928 4.944 11.122 8.447 18.096 10.057zM160.988 183.899c.114.504.252.992.35 1.496 5.739 2.552 12.136 3.861 18.907 3.203 7.299-.675 13.867-3.471 19.33-7.6 1.195-.902 2.276-1.902 3.357-2.934 1.024-.984 2.105-1.902 3.008-2.991 6.243-7.486 9.632-17.346 8.673-27.8-1.813-19.687-18.062-34.53-37.798-34.53-1.171 0-2.333.049-3.52.163-20.785 1.91-36.148 20.313-34.368 41.09 8.649 4.926 15.542 12.575 19.509 21.89.536 1.268 1.016 2.577 1.439 3.902.43 1.348.796 2.721 1.113 4.111zM103.836 238.434c-.366-1.585-.854-3.105-1.406-4.601-.691-1.861-1.479-3.658-2.439-5.357-.325-.577-.699-1.13-1.049-1.691-.74-1.171-1.471-2.333-2.333-3.414-.878-1.097-1.837-2.113-2.829-3.105-3.13-3.129-6.779-5.657-10.835-7.527-1.715-.788-3.487-1.423-5.332-1.959-1.593-.463-3.195-.862-4.861-1.114-1.878-.285-3.772-.536-5.731-.536-1.171 0-2.341.057-3.528.171-10.112.927-19.257 5.739-25.751 13.542-6.487 7.803-9.551 17.672-8.624 27.775 1.918 20.85 20.143 36.4 41.326 34.376 6.804-.626 12.924-3.154 18.159-6.82 1.146-.805 2.276-1.601 3.316-2.52 1.024-.902 1.975-1.87 2.894-2.878 7.023-7.633 11.014-17.997 9.99-29.108-.154-1.812-.56-3.519-.967-5.234zM7.188 113.221c29.58 9.283 58.103 23.532 74.661 49.999.748 1.195 1.406 2.471 2.097 3.715.723 1.292 1.52 2.52 2.187 3.877-5.739 7.356-8.876 16.769-7.958 26.776.163 1.756.593 3.406.984 5.08 8.039 2.17 15.233 6.422 20.89 12.242.975 1.008 1.918 2.057 2.804 3.146.853 1.049 1.65 2.146 2.406 3.276 2.122 3.162 3.82 6.625 5.121 10.299 2.959.431 5.983.618 9.112.317 6.73-.618 12.941-3.097 18.322-6.885 1.26-.886 2.455-1.837 3.609-2.878 1.114-1.016 2.227-2.04 3.227-3.195l.228-.219.366-.366c.723-.87 1.244-1.853 1.878-2.772.788-1.138 1.674-2.219 2.325-3.422 3.536-6.503 5.08-13.908 4.414-21.443v-.138l-.065-.35c-.171-1.65-.536-3.227-.902-4.804l-.057-.325c-.333-1.398-.764-2.731-1.252-4.064-.374-1.032-.732-2.065-1.187-3.048-1.975-4.268-4.69-8.072-8.007-11.282-1.886-1.821-3.902-3.495-6.129-4.893-1.455-.91-3.032-1.626-4.609-2.333-4.78-2.146-10.014-3.438-15.599-3.438-1.171 0-2.341.057-3.528.171-3.942.366-7.608 1.479-11.079 2.934-.667-1.203-1.374-2.357-2.073-3.528-.732-1.219-1.439-2.463-2.203-3.633-19.777-30.32-51.69-46.528-86.651-57.502-11.656-3.675-14.834 15.069-3.332 18.686z" fill="#151B54"/><path d="M62.055 148.02c-38.895-39.497-60.297 49.405-60.297 49.405 25.946 14.307 99.193-9.908 60.297-49.405z" fill="#437C17"/><path d="M486.855 53.655c-33.01 2.853-64.598 10.153-90.17 28.93-1.894 1.39-3.747 2.869-5.576 4.398-1.861 1.553-3.682 3.186-5.471 4.877-4.064-1.016-8.153-1.658-12.217-1.658-23.15 0-45.114 15.916-52.99 40.553-.415 1.309-.732 2.617-1.057 3.926-2.057 6.105-7.852 17.997-23.272 25.727-21.468 10.754-32.604 21.24-32.604 21.24l.041.024c-12.9 9.592-23.321 22.199-30.019 37.204-.577 1.292-1.138 2.585-1.65 3.91-.488 1.244-.943 2.504-1.382 3.772-.195.577-.439 1.13-.626 1.715-4.519 14.136-5.332 28.621-3.138 42.626.219 1.374.463 2.747.732 4.105.285 1.39.545 2.78.886 4.154.87 3.495 1.951 6.934 3.195 10.331h209.49c4.316-17.338 3.365-35.026-1.943-51.543l.081.008s-2.463-14.948-13.705-36.172c-8.901-16.802-5.714-31.067-3.999-36.294.26-.723.569-1.414.805-2.154.602-1.878 1.105-3.764 1.52-5.649-10.933-7.178-19.704-16.615-22.817-27.141-1.845-6.235-2.739-16.737 5.763-27.71-.593-.528-1.236-1.008-1.853-1.512 1.618-1.317 3.268-2.593 4.958-3.796 1.74-1.236 3.512-2.414 5.316-3.536.927-.577 1.894-1.097 2.837-1.642.805-.569 1.585-1.146 2.455-1.715 5.975-3.877 11.754-6.308 17.257-7.283 15.306-5.406 31.823-8.194 48.316-9.616 12.745-1.082 13.753-21.192.837-20.079z" fill="#F88017"/><path d="M443.082 91.006c-5.202 0-11.217 1.935-18.192 6.462-1.366.886-2.634 1.78-3.82 2.674-1.74 1.317-3.227 2.65-4.593 3.991-1.561 1.528-2.943 3.073-4.048 4.617-10.307 14.379-1.87 29.287 12.583 39.919 1.853 1.366 3.796 2.658 5.82 3.869 1.837 1.097 3.731 2.138 5.666 3.105 9.925 4.918 20.874 7.901 30.165 7.901 3.341 0 6.462-.382 9.242-1.203.001-.007-1.308-71.335-32.823-71.335z" fill="#348017"/><path d="M268.716 297.626h-227.11999999999998c0 116.962 94.812 144.835 211.774 144.835s211.774-27.873 211.774-144.835h-196.428z" fill="#3B3131"/></symbol></svg>
